<svg width="12" height="12" viewBox="0 0 12 12" fill="none" xmlns="http://www.w3.org/2000/svg">
<path d="M6.61321 12C5.84026 12 5.21989 11.7218 4.75211 11.1654C4.28433 10.609 4.05044 9.97111 4.05044 9.25187C4.05044 8.53263 4.28433 7.89477 4.75211 7.3383C5.21989 6.78193 5.84026 6.50374 6.61321 6.50374C7.38617 6.50374 8.00654 6.78193 8.47432 7.3383C8.9421 7.89477 9.17599 8.53263 9.17599 9.25187C9.17599 9.97111 8.9421 10.609 8.47432 11.1654C8.00654 11.7218 7.38617 12 6.61321 12ZM1.07589 11.5255L0 11.2167C0.298738 10.3664 0.519137 9.50733 0.661199 8.63951C0.80326 7.77159 0.874291 6.89193 0.874291 6.00054C0.874291 5.10905 0.80326 4.22774 0.661199 3.35661C0.519137 2.48539 0.298738 1.62466 0 0.774426L1.07589 0.465566C1.38924 1.36706 1.62262 2.2785 1.77602 3.1999C1.92953 4.12139 2.00629 5.05494 2.00629 6.00054C2.00629 6.94024 1.92953 7.87062 1.77602 8.79166C1.62262 9.71279 1.38924 10.6241 1.07589 11.5255ZM10.9241 11.5255C10.6108 10.6241 10.3774 9.71262 10.224 8.79113C10.0705 7.86963 9.99372 6.93908 9.99372 5.99946C9.99372 5.05386 10.0705 4.1205 10.224 3.19937C10.3774 2.27832 10.6108 1.36706 10.9241 0.465566L12 0.774426C11.7013 1.62466 11.4809 2.48521 11.3388 3.35607C11.1967 4.22685 11.1257 5.10798 11.1257 5.99946C11.1257 6.89095 11.1967 7.77079 11.3388 8.63897C11.4809 9.50716 11.7013 10.3664 12 11.2167L10.9241 11.5255ZM6.61321 11.0366C7.0814 11.0366 7.44223 10.8534 7.69569 10.4869C7.94915 10.1204 8.07588 9.70833 8.07588 9.2508C8.07588 8.7947 7.94915 8.38302 7.69569 8.01576C7.44223 7.64859 7.0814 7.46501 6.61321 7.46501C6.14503 7.46501 5.78461 7.64859 5.53196 8.01576C5.27932 8.38302 5.153 8.79505 5.153 9.25187C5.153 9.70869 5.27932 10.1204 5.53196 10.4869C5.78461 10.8534 6.14503 11.0366 6.61321 11.0366ZM6.11697 10.2347C6.21478 10.3116 6.32909 10.3498 6.45991 10.3495C6.59073 10.3491 6.70499 10.3066 6.8027 10.222C6.95058 10.0953 7.06347 9.94759 7.14135 9.77891C7.21922 9.61015 7.25816 9.43456 7.25816 9.25214C7.25816 9.06971 7.22117 8.89457 7.14717 8.7267C7.07318 8.55892 6.96346 8.41061 6.81803 8.28176C6.73085 8.1964 6.61924 8.15372 6.48321 8.15372C6.34708 8.15372 6.23016 8.19193 6.13245 8.26837C6.03322 8.34614 5.98104 8.44637 5.97593 8.56906C5.97082 8.69174 6.01278 8.79626 6.10179 8.8826C6.11079 8.89046 6.14227 8.92975 6.19623 9.00047C6.25029 9.07128 6.27733 9.15472 6.27733 9.2508C6.27733 9.3475 6.25029 9.43197 6.19623 9.50421C6.14227 9.57645 6.11079 9.61645 6.10179 9.62422C6.00501 9.71002 5.95856 9.81396 5.96244 9.93602C5.96632 10.0582 6.01783 10.1577 6.11697 10.2347ZM5.38679 5.49626C4.61383 5.49626 3.99346 5.21807 3.52568 4.6617C3.0579 4.10523 2.82401 3.46738 2.82401 2.74813C2.82401 2.02889 3.0579 1.39103 3.52568 0.834565C3.99346 0.278188 4.61383 0 5.38679 0C6.15974 0 6.78011 0.278188 7.24789 0.834565C7.71567 1.39103 7.94956 2.02889 7.94956 2.74813C7.94956 3.46738 7.71567 4.10523 7.24789 4.6617C6.78011 5.21807 6.15974 5.49626 5.38679 5.49626ZM5.38679 4.53285C5.85497 4.53285 6.2158 4.34962 6.46926 3.98317C6.72272 3.61663 6.84946 3.20459 6.84946 2.74706C6.84946 2.29096 6.72272 1.87928 6.46926 1.51202C6.2158 1.14485 5.85497 0.961269 5.38679 0.961269C4.9186 0.961269 4.55818 1.14485 4.30553 1.51202C4.05289 1.87928 3.92657 2.29131 3.92657 2.74813C3.92657 3.20495 4.05289 3.61663 4.30553 3.98317C4.55818 4.34962 4.9186 4.53285 5.38679 4.53285ZM5.86755 3.73163C5.96678 3.65386 6.01896 3.55363 6.02407 3.43094C6.02918 3.30826 5.98722 3.20374 5.89821 3.1174C5.84864 3.06588 5.8074 3.00824 5.77449 2.94448C5.74158 2.88073 5.72513 2.81483 5.72513 2.74679C5.72513 2.67929 5.74158 2.61343 5.77449 2.54923C5.8074 2.48503 5.84864 2.42722 5.89821 2.37578C5.98722 2.29015 6.03173 2.18791 6.03173 2.06907C6.03173 1.95022 5.98217 1.84896 5.88303 1.7653C5.78502 1.68842 5.67065 1.64998 5.53994 1.64998C5.40922 1.64998 5.29501 1.69266 5.1973 1.77802C5.04942 1.90723 4.93694 2.05576 4.85988 2.22363C4.78282 2.3915 4.74429 2.56615 4.74429 2.74759C4.74429 2.92957 4.78026 3.10454 4.85222 3.2725C4.92417 3.44045 5.03408 3.58904 5.18197 3.71824C5.27886 3.80289 5.39292 3.84539 5.52415 3.84575C5.65537 3.84611 5.76984 3.80807 5.86755 3.73163Z" fill="#80E4C1"/>
</svg>
