<svg width="12" height="12" viewBox="0 0 12 12" fill="none" xmlns="http://www.w3.org/2000/svg">
<path d="M3.75 12C2.70556 12 1.81944 11.6361 1.09167 10.9083C0.363889 10.1806 0 9.29445 0 8.25C0 7.75 0.0944445 7.27222 0.283333 6.81667C0.472222 6.36111 0.744444 5.95556 1.1 5.6L5.6 1.1C5.95556 0.744444 6.36111 0.472222 6.81667 0.283333C7.27222 0.0944445 7.75 0 8.25 0C9.29445 0 10.1806 0.363889 10.9083 1.09167C11.6361 1.81944 12 2.70556 12 3.75C12 4.25 11.9056 4.72778 11.7167 5.18333C11.5278 5.63889 11.2556 6.04444 10.9 6.4L6.4 10.9C6.04444 11.2556 5.63889 11.5278 5.18333 11.7167C4.72778 11.9056 4.25 12 3.75 12ZM8.26117 7.46667L10.1222 5.62217C10.3666 5.37772 10.5555 5.09256 10.6888 4.76667C10.8222 4.44078 10.8888 4.10189 10.8888 3.75C10.8888 3.01667 10.6324 2.3935 10.1195 1.8805C9.6065 1.36761 8.98333 1.11117 8.25 1.11117C7.89811 1.11117 7.55922 1.17783 7.23333 1.31117C6.90744 1.4445 6.62228 1.63339 6.37783 1.87783L4.53333 3.73883L8.26117 7.46667ZM3.75 10.8888C4.09444 10.8888 4.4315 10.8222 4.76117 10.6888C5.09072 10.5555 5.37772 10.3666 5.62217 10.1222L7.46667 8.26117L3.73883 4.53333L1.87783 6.37783C1.63339 6.62228 1.4445 6.90744 1.31117 7.23333C1.17783 7.55922 1.11117 7.89811 1.11117 8.25C1.11117 8.98333 1.36761 9.6065 1.8805 10.1195C2.3935 10.6324 3.01667 10.8888 3.75 10.8888Z" fill="#80E4C1"/>
</svg>
