<svg width="10" height="10" viewBox="0 0 10 10" fill="none" xmlns="http://www.w3.org/2000/svg">
<path d="M8.11136 1.06344C7.18453 0.922341 6.23707 1.01833 5.35736 1.34244L5.18536 1.40844C4.09308 1.8513 2.90153 1.99121 1.73636 1.81344C1.23536 1.73594 0.732864 1.61844 0.276364 1.39144C0.162412 1.33445 0.0745122 1.23612 0.0306151 1.11651C-0.0132821 0.996905 -0.00986484 0.865054 0.0401689 0.747883C0.0902026 0.630712 0.183078 0.537061 0.299829 0.486055C0.41658 0.435049 0.548398 0.430536 0.668364 0.473437L0.721864 0.495937C1.08236 0.671437 1.49536 0.764437 1.88836 0.824937C2.81528 0.965714 3.76275 0.869384 4.64236 0.544937L4.81436 0.479937C5.90665 0.0370781 7.0982 -0.10284 8.26336 0.0749371C8.75686 0.150937 9.27236 0.272437 9.72336 0.496437C9.78215 0.525766 9.83458 0.566393 9.87766 0.615995C9.92073 0.665597 9.95361 0.723202 9.97441 0.785518C9.99522 0.847833 10.0035 0.913637 9.99889 0.979169C9.99425 1.0447 9.97674 1.10868 9.94736 1.16744C9.88715 1.28496 9.78329 1.37422 9.65805 1.41609C9.53281 1.45796 9.39616 1.44911 9.27736 1.39144C8.91336 1.22044 8.50636 1.12394 8.11136 1.06344ZM8.11136 4.06344C7.18453 3.92234 6.23707 4.01833 5.35736 4.34244L5.18536 4.40844C4.09308 4.8513 2.90153 4.99121 1.73636 4.81344C1.23536 4.73594 0.732864 4.61844 0.276364 4.39144C0.162412 4.33445 0.0745122 4.23611 0.0306151 4.11651C-0.0132821 3.9969 -0.00986484 3.86505 0.0401689 3.74788C0.0902026 3.63071 0.183078 3.53706 0.299829 3.48606C0.41658 3.43505 0.548398 3.43054 0.668364 3.47344L0.721864 3.49594C1.08236 3.67144 1.49536 3.76444 1.88836 3.82494C2.81528 3.96571 3.76275 3.86938 4.64236 3.54494L4.81436 3.47994C5.90665 3.03708 7.0982 2.89716 8.26336 3.07494C8.75686 3.15094 9.27236 3.27244 9.72336 3.49644C9.78215 3.52577 9.83458 3.56639 9.87766 3.616C9.92073 3.6656 9.95361 3.7232 9.97441 3.78552C9.99522 3.84783 10.0035 3.91364 9.99889 3.97917C9.99425 4.0447 9.97674 4.10868 9.94736 4.16744C9.88715 4.28496 9.78329 4.37422 9.65805 4.41609C9.53281 4.45796 9.39616 4.44911 9.27736 4.39144C8.91336 4.22044 8.50636 4.12394 8.11136 4.06344ZM5.00236 7.47844L5.18536 7.40844C6.33586 6.94844 7.36786 6.94844 8.11136 7.06344C8.50636 7.12394 8.91337 7.22044 9.27687 7.39144C9.39566 7.44911 9.53231 7.45796 9.65755 7.41609C9.78279 7.37422 9.88665 7.28496 9.94686 7.16744C9.97624 7.10868 9.99375 7.0447 9.99839 6.97917C10.003 6.91364 9.99472 6.84783 9.97392 6.78552C9.95311 6.7232 9.92023 6.6656 9.87716 6.61599C9.83408 6.56639 9.78165 6.52577 9.72286 6.49644C9.27236 6.27244 8.75686 6.15094 8.26336 6.07494C7.16391 5.90753 6.03994 6.02281 4.99736 6.40994L4.81436 6.47994C3.88792 6.85645 2.87697 6.97565 1.88836 6.82494C1.55136 6.77294 1.20036 6.69744 0.879364 6.56644L0.721864 6.49644C0.603785 6.4422 0.46923 6.43606 0.346702 6.47932C0.224175 6.52258 0.123302 6.61184 0.0654509 6.72819C0.00760023 6.84454 -0.00268289 6.97885 0.0367799 7.10265C0.0762426 7.22645 0.162351 7.33003 0.276864 7.39144C0.732864 7.61894 1.23536 7.73644 1.73636 7.81294C2.57786 7.94294 3.72636 7.94794 5.00236 7.47844Z" fill="#80E4C1"/>
</svg>
