<svg width="76" height="28" viewBox="0 0 76 28" fill="none" xmlns="http://www.w3.org/2000/svg">
<path fill-rule="evenodd" clip-rule="evenodd" d="M0 0.626336H6C8.53333 0.626336 11.9333 12.8417 17 14.303C22.0667 15.7643 24.4333 2.72232 29.5 1.62633C34.5667 0.530351 36.4333 15.4429 41.5 15.0776C46.5667 14.7123 53.9333 -1.04135 59 0.0546304C64.0667 1.15061 70.9336 16.4949 73.4669 15.3989L76.0002 14.303V27.4548H73.4669C70.9336 27.4548 65.8669 27.4548 60.8002 27.4548C55.7336 27.4548 50.6669 27.4548 45.6002 27.4548C40.5336 27.4548 35.4669 27.4548 30.4002 27.4548C25.3336 27.4548 20.2669 27.4548 15.2002 27.4548C10.1336 27.4548 5.06691 27.4548 2.53358 27.4548H0.000244141L0 0.626336Z" fill="url(#paint0_linear_950_1218)"/>
<defs>
<linearGradient id="paint0_linear_950_1218" x1="-7.6001" y1="44.6133" x2="68.3999" y2="44.6133" gradientUnits="userSpaceOnUse">
<stop stop-color="#75E4FD"/>
<stop offset="1" stop-color="#7580FD"/>
</linearGradient>
</defs>
</svg>
