<svg width="12" height="12" viewBox="0 0 12 12" fill="none" xmlns="http://www.w3.org/2000/svg">
<path d="M7.72647 6.31472C7.91636 6.31472 8.0743 6.25954 8.20028 6.1492C8.32638 6.03875 8.38944 5.90582 8.38944 5.75039C8.38944 5.67435 8.37635 5.60653 8.35017 5.54691C8.32411 5.4874 8.28589 5.43149 8.23549 5.3792C8.38188 5.35932 8.51136 5.3007 8.62395 5.20333C8.73665 5.10585 8.79301 4.99012 8.79301 4.85613C8.79301 4.69454 8.72995 4.56009 8.60385 4.45278C8.47787 4.34547 8.31993 4.29181 8.13004 4.29181C7.9807 4.29181 7.84827 4.33213 7.73273 4.41277C7.61732 4.49331 7.54389 4.59371 7.51242 4.71399L4.7278 3.59931C4.75238 3.55664 4.77211 3.51313 4.78698 3.46878C4.80173 3.42443 4.80911 3.37658 4.80911 3.32523C4.80911 3.16363 4.74612 3.02923 4.62014 2.92203C4.49403 2.81472 4.33702 2.76106 4.14909 2.76106C3.96645 2.76106 3.81029 2.81472 3.68062 2.92203C3.55095 3.02923 3.48612 3.16363 3.48612 3.32523C3.48612 3.38547 3.49945 3.44394 3.52613 3.50063C3.5528 3.55732 3.59133 3.61097 3.64172 3.66159C3.48845 3.67896 3.35227 3.73821 3.23317 3.83935C3.11407 3.94059 3.05453 4.06469 3.05453 4.21164C3.05453 4.3655 3.11985 4.49759 3.2505 4.60794C3.38115 4.71828 3.53682 4.77345 3.71749 4.77345C3.87912 4.77345 4.0177 4.73052 4.13323 4.64465C4.24877 4.55878 4.32221 4.45659 4.35355 4.33809L7.17393 5.4578C7.16582 5.46481 7.12895 5.56234 7.06331 5.75039C7.06331 5.90582 7.12864 6.03875 7.25929 6.1492C7.38994 6.25954 7.54567 6.31472 7.72647 6.31472ZM5.06482 11.9962C4.87111 11.518 4.72676 11.0453 4.63175 10.5781C4.53687 10.111 4.47664 9.66902 4.45107 9.25212C4.42551 8.83522 4.42244 8.4498 4.44186 8.09586C4.46128 7.74182 4.48795 7.43887 4.52187 7.18701C4.24864 7.13231 3.93351 7.06312 3.57646 6.97945C3.21941 6.89588 2.84208 6.78438 2.44447 6.64496C2.04674 6.50544 1.6396 6.33783 1.22306 6.14214C0.806404 5.94645 0.398716 5.71467 0 5.44682L0.831661 4.46941C1.17494 4.73789 1.54066 4.96711 1.92881 5.15704C2.31695 5.34709 2.70079 5.50748 3.08034 5.63822C3.45988 5.76896 3.81969 5.87355 4.15978 5.95199C4.49987 6.03044 4.7887 6.08707 5.02629 6.1219C5.29669 6.16112 5.51282 6.27115 5.67469 6.45199C5.83644 6.63294 5.89888 6.83846 5.862 7.06856C5.82108 7.31958 5.78937 7.63597 5.76687 8.01773C5.74426 8.39949 5.74831 8.81346 5.77904 9.25965C5.80977 9.70594 5.87841 10.1661 5.98497 10.6403C6.09154 11.1145 6.25335 11.5677 6.4704 12L5.06482 11.9962ZM12 12H10.6739V5.36367C10.6739 4.81979 10.5049 4.32648 10.1669 3.88375C9.82888 3.44091 9.37516 3.10443 8.80573 2.87433L3.76672 0.970662L4.59377 0L9.3555 1.85284C10.1617 2.16358 10.804 2.63461 11.2825 3.26592C11.7608 3.89713 12 4.59638 12 5.36367V12Z" fill="#80E4C1"/>
</svg>
