<svg width="76" height="6" viewBox="0 0 76 6" fill="none" xmlns="http://www.w3.org/2000/svg">
<path fill-rule="evenodd" clip-rule="evenodd" d="M0 1.45102L4.5 1.54701C7.03333 1.54701 7.93333 -1.01029 13 0.451022C18.0667 1.91233 25.3333 1.54701 30.4 0.451022C35.4667 -0.644962 40.5333 1.81635 45.6 1.45102C50.6667 1.08569 58.9333 -0.644962 64 0.451022C69.0667 1.54701 68.9667 2.59598 71.5 1.5L76 1.54701V5.60283H73.4667C70.9333 5.60283 65.8667 5.60283 60.8 5.60283C55.7333 5.60283 50.6667 5.60283 45.6 5.60283C40.5333 5.60283 35.4667 5.60283 30.4 5.60283C25.3333 5.60283 20.2667 5.60283 15.2 5.60283C10.1333 5.60283 5.06667 5.60283 2.53333 5.60283H0V1.45102Z" fill="url(#paint0_linear_953_17117)"/>
<defs>
<linearGradient id="paint0_linear_953_17117" x1="0" y1="-1.89648" x2="76" y2="-1.89648" gradientUnits="userSpaceOnUse">
<stop stop-color="#75E4FD"/>
<stop offset="1" stop-color="#7580FD"/>
</linearGradient>
</defs>
</svg>
