<svg width="9" height="12" viewBox="0 0 9 12" fill="none" xmlns="http://www.w3.org/2000/svg">
<path d="M4.45246 12C3.96748 12 3.4969 11.9549 3.04071 11.8647C2.58453 11.7746 2.17163 11.6597 1.80202 11.5202C1.27056 11.3211 0.837334 11.0782 0.502333 10.7916C0.167444 10.5051 0 10.1869 0 9.83692V6.37216C0 6.06212 0.135692 5.77723 0.407075 5.51747C0.678458 5.25772 1.02774 5.02791 1.45492 4.82804C1.89139 4.62828 2.37262 4.47326 2.89858 4.36299C3.42455 4.25272 3.95919 4.19758 4.50252 4.19758C5.04495 4.19758 5.5787 4.25272 6.10377 4.36299C6.62884 4.47326 7.10956 4.62818 7.54592 4.82775C7.98229 5.02732 8.3337 5.25713 8.60015 5.51718C8.86672 5.77733 9 6.06246 9 6.3726V9.83882C9 10.0089 8.9571 10.1739 8.87131 10.3339C8.78552 10.4938 8.66192 10.6446 8.50052 10.7863C8.33913 10.9279 8.15158 11.0607 7.93788 11.1848C7.72418 11.3089 7.48482 11.4203 7.21983 11.5189C7.23091 11.4704 7.2476 11.3308 7.26989 11.1C7.26989 10.5188 7.03362 10.0234 6.56108 9.61386C6.08854 9.20443 5.51805 8.99971 4.84962 8.99971C4.354 8.99971 3.91495 9.11444 3.53246 9.34391C3.14986 9.57329 2.86022 9.86813 2.66354 10.2284C3.03304 10.3108 3.37112 10.3665 3.67779 10.3956C3.98456 10.4247 4.25365 10.4393 4.48505 10.4393C4.68184 10.4393 4.84038 10.4344 4.96067 10.4247C5.08096 10.415 5.15925 10.409 5.19554 10.4067V11.9674C5.06696 11.9779 4.94247 11.9859 4.82206 11.9916C4.70177 11.9972 4.57857 12 4.45246 12ZM6.57855 8.70035C6.96048 8.70035 7.28686 8.58285 7.55768 8.34785C7.82851 8.11275 7.96392 7.83018 7.96392 7.50015C7.96392 7.17011 7.82834 6.88774 7.55718 6.65303C7.28613 6.41841 6.96026 6.30111 6.57956 6.30111C6.19662 6.30111 5.87019 6.41861 5.60026 6.65361C5.33045 6.88861 5.19554 7.17113 5.19554 7.50117C5.19554 7.8312 5.3305 8.11357 5.60043 8.34828C5.87047 8.58299 6.19651 8.70035 6.57855 8.70035ZM4.50252 3.59901C5.07743 3.59901 5.56733 3.42574 5.97222 3.07921C6.37723 2.73277 6.57973 2.30581 6.57973 1.79834C6.57973 1.29883 6.37779 0.874248 5.9739 0.524607C5.57002 0.174869 5.07956 0 4.50252 0C3.91574 0 3.42248 0.174869 3.02274 0.524607C2.62289 0.874248 2.42296 1.29883 2.42296 1.79834C2.42296 2.30581 2.62294 2.73277 3.0229 3.07921C3.42287 3.42574 3.91607 3.59901 4.50252 3.59901Z" fill="#80E4C1"/>
</svg>
