<svg width="12" height="12" viewBox="0 0 12 12" fill="none" xmlns="http://www.w3.org/2000/svg">
<path d="M2.26026 10.5569C1.8596 10.5569 1.52068 10.4184 1.24351 10.1416C0.966262 9.86478 0.827637 9.52632 0.827637 9.12624V6.83598L2.17114 3.33023C2.27622 3.05482 2.45285 2.83815 2.70101 2.68023C2.94918 2.52232 3.21947 2.44336 3.51189 2.44336C3.8878 2.44336 4.20647 2.57644 4.46789 2.84261C4.72922 3.10878 4.85989 3.42932 4.85989 3.80423V4.34336H3.91101V3.80423C3.91101 3.68848 3.8686 3.59057 3.78376 3.51048C3.69901 3.43032 3.5998 3.39023 3.48614 3.39023C3.39139 3.39023 3.30405 3.41248 3.22414 3.45698C3.1443 3.50148 3.08855 3.56694 3.05689 3.65336L1.77651 6.99873V9.12624C1.77651 9.26332 1.82289 9.37823 1.91564 9.47098C2.0083 9.56365 2.12318 9.60998 2.26026 9.60998H4.06939C4.20647 9.60998 4.32135 9.56365 4.41401 9.47098C4.50676 9.37823 4.55314 9.26332 4.55314 9.12624V8.22361H5.50001V9.12624C5.50001 9.52632 5.36093 9.86478 5.08276 10.1416C4.8046 10.4184 4.4668 10.5569 4.06939 10.5569H2.26026ZM9.73864 10.5569H7.92939C7.53205 10.5569 7.1943 10.4184 6.91614 10.1416C6.63797 9.86478 6.49889 9.52632 6.49889 9.12624V8.22361H7.44576V9.12624C7.44576 9.26332 7.4921 9.37823 7.58476 9.47098C7.67751 9.56365 7.79239 9.60998 7.92939 9.60998H9.73864C9.87664 9.60998 9.99176 9.56365 10.084 9.47098C10.1762 9.37823 10.2223 9.26332 10.2223 9.12624V6.99873L8.94201 3.65336C8.90785 3.56719 8.8511 3.50182 8.77176 3.45723C8.69243 3.41257 8.60601 3.39023 8.51251 3.39023C8.39751 3.39023 8.29797 3.43032 8.21389 3.51048C8.12989 3.59057 8.08789 3.68848 8.08789 3.80423V4.34336H7.13901V3.80423C7.13901 3.42932 7.2698 3.10878 7.53139 2.84261C7.79305 2.57644 8.11076 2.44336 8.48451 2.44336C8.77726 2.44336 9.04764 2.52236 9.29564 2.68036C9.54364 2.83836 9.72101 3.05498 9.82776 3.33023L11.1713 6.83598V9.12711C11.1713 9.52644 11.0318 9.86457 10.7528 10.1415C10.4738 10.4184 10.1358 10.5569 9.73864 10.5569ZM6.00001 5.69123L4.70001 6.99011L4.03401 6.32398L5.52651 4.83248V0.943359H6.47351V4.83348L7.96601 6.32398L7.29889 6.99011L6.00001 5.69123Z" fill="#80E4C1"/>
</svg>
