<svg width="10" height="12" viewBox="0 0 10 12" fill="none" xmlns="http://www.w3.org/2000/svg">
<path d="M4.99939 4.69489C4.29647 4.69489 3.71254 4.47177 3.2476 4.02553C2.78266 3.5792 2.55019 3.01978 2.55019 2.3473C2.55019 1.67256 2.78266 1.11266 3.2476 0.667596C3.71244 0.222532 4.29575 0 4.99755 0C5.7017 0 6.28644 0.222532 6.75179 0.667596C7.21714 1.11266 7.44981 1.67197 7.44981 2.34554C7.44981 3.0192 7.21714 3.57915 6.75179 4.02538C6.28644 4.47172 5.70231 4.69489 4.99939 4.69489ZM4.99832 3.58345C5.36788 3.58345 5.67528 3.46543 5.9205 3.2294C6.16572 2.99347 6.28833 2.69944 6.28833 2.3473C6.28833 1.99291 6.16587 1.69833 5.92096 1.46358C5.67604 1.22891 5.36941 1.11158 5.00107 1.11158C4.63273 1.11158 4.32534 1.22891 4.07889 1.46358C3.83245 1.69833 3.70922 1.99232 3.70922 2.34554C3.70922 2.69875 3.83229 2.99337 4.07843 3.2294C4.32447 3.46543 4.6311 3.58345 4.99832 3.58345ZM0 12V8.11562C0 7.73746 0.0979252 7.40718 0.293776 7.12479C0.489626 6.84239 0.750862 6.625 1.07748 6.4726C1.59934 6.23853 2.19138 6.03042 2.8536 5.84829C3.51582 5.66625 4.23108 5.57523 4.99939 5.57523C5.76779 5.57523 6.47984 5.66557 7.13554 5.84623C7.79133 6.0269 8.38281 6.23564 8.90997 6.47245C9.24414 6.62387 9.50935 6.84102 9.70561 7.12391C9.90187 7.40689 10 7.73746 10 8.11562V10.8884C10 11.1916 9.8856 11.4527 9.6568 11.6716C9.42801 11.8905 9.15519 12 8.83836 12H3.66684C3.20669 12 2.81652 11.8464 2.49633 11.5391C2.17623 11.2319 2.01619 10.8575 2.01619 10.4158C2.01619 9.97427 2.17623 9.60032 2.49633 9.29396C2.81652 8.9875 3.20669 8.83427 3.66684 8.83427H5.42613L6.3913 6.81432C6.16036 6.77177 5.9284 6.74027 5.69542 6.71983C5.46244 6.69929 5.22977 6.68902 4.9974 6.68902C4.27285 6.68902 3.6267 6.76903 3.05894 6.92906C2.49128 7.08899 2.00237 7.26667 1.5922 7.46211C1.46572 7.52442 1.36193 7.61681 1.28083 7.73927C1.19974 7.86184 1.15919 7.99232 1.15919 8.13073V12H0ZM3.66684 10.9317H4.38445L4.89244 9.90258H3.66684C3.52505 9.90258 3.40015 9.95437 3.29212 10.058C3.1842 10.1616 3.13024 10.2819 3.13024 10.4188C3.13024 10.5557 3.1842 10.6754 3.29212 10.7779C3.40015 10.8804 3.52505 10.9317 3.66684 10.9317ZM5.64921 10.8884H8.83836V8.13073C8.83836 7.99232 8.79675 7.86203 8.71351 7.73986C8.63017 7.61769 8.52561 7.5253 8.39984 7.4627C8.28519 7.40586 8.15182 7.34786 7.99972 7.28868C7.84763 7.2294 7.67774 7.16587 7.49005 7.09809L5.64921 10.8884Z" fill="#80E4C1"/>
</svg>
